<?xml version="1.0" encoding="UTF-8"?>
<!DOCTYPE svg PUBLIC "-//W3C//DTD SVG 1.1//EN" "http://www.w3.org/Graphics/SVG/1.1/DTD/svg11.dtd">
<!-- Creator: CorelDRAW 2018 (64 Bit) -->
<svg xmlns="http://www.w3.org/2000/svg" xml:space="preserve" width="2480px" height="3508px" version="1.1" style="shape-rendering:geometricPrecision; text-rendering:geometricPrecision; image-rendering:optimizeQuality; fill-rule:evenodd; clip-rule:evenodd"
viewBox="0 0 2480 3507.43"
 xmlns:xlink="http://www.w3.org/1999/xlink">
 <defs>
  <style type="text/css">
   <![CDATA[
    .fil0 {fill:#052136}
    .fil15 {fill:#4B892D}
    .fil11 {fill:#8CB74D}
    .fil14 {fill:#9DC851}
    .fil6 {fill:#A84947}
    .fil5 {fill:#B6C6BB}
    .fil8 {fill:#CA7439}
    .fil10 {fill:#CF9889}
    .fil9 {fill:#D03945}
    .fil7 {fill:#E83D44}
    .fil12 {fill:#E9ECD7}
    .fil13 {fill:#F05049}
    .fil2 {fill:#F3C364}
    .fil3 {fill:#FBFDFC}
    .fil1 {fill:#FDF6D0}
    .fil4 {fill:#FED5B2}
   ]]>
  </style>
 </defs>
 <g id="Capa_x0020_1">
  <metadata id="CorelCorpID_0Corel-Layer"/>
  <g id="_2440394589024">
   <path class="fil0" d="M757.99 1607.84c29.74,19.25 18.98,31.11 108.6,72.38 161.03,74.15 289.02,46.22 433,-35.26l56.32 -35.38c6.39,-9.67 88.13,-58.88 103.61,-69.3 35.79,-24.09 70.58,-51.52 110.87,-70.59l80.86 -54.22c63.99,-38.72 120.41,-64.47 151.16,-132.13 15.52,-34.16 13.78,-79.19 13.78,-127.87 11.13,-2.59 41.07,-20.16 51.88,-27.28 20.23,-13.32 25.8,-26.51 23.21,-60.1 -2.66,-34.61 -25.13,-37.07 -57.06,-63.96 -12.29,-10.34 -8.41,-11.12 -26.36,-15.3 0,-47.12 22.92,-72.38 -29.07,-79.26l-13.78 -2.88c-57.17,-16.53 35.02,-156.09 -100.46,-257.82 -103.88,-78 -270.35,-80.35 -394.68,-35.56 -59.87,21.57 -402.68,230.6 -460.74,272.5 -56.05,40.45 -82.28,73.15 -94.75,151.06 -5.11,31.95 0.02,88.25 6.12,114.43l-63.75 52.91c-34.31,27.93 -49.57,18.8 -51.71,64.57 -2.3,49.45 31.32,67.1 75.47,97.49 13.55,9.32 23.56,18.46 35.82,26.67 -13.38,57.43 -5.69,163.3 41.66,214.9z"/>
   <path class="fil1" d="M841.11 1092.62c41.58,41.28 183.18,53.39 253.19,41.22 98.66,-17.15 218.06,-95.43 303.18,-151.37l140.89 -88.14c18.43,-11.7 31.83,-16.87 50.22,-29.11 34.03,-22.65 65.33,-43.87 81.6,-76.31 -13.31,-5.55 11.96,-37.49 -14.78,-72.43 -40.69,-53.17 -136.7,-75.39 -214.18,-74.92 -120.98,0.74 -152.87,35.26 -223.29,66.42 -20.04,8.86 -42.94,24.46 -59.84,35.29l-173.67 105.43c-52.61,37.09 -122.57,65.7 -169.95,117.25 -12.26,13.33 -14.82,11.07 -16.42,35.12 -5.43,81.86 61.99,78.76 43.05,91.55z"/>
   <path class="fil2" d="M775.33 1087.76c-5.29,23.11 -7.88,34.87 -3.06,62.31 4.14,23.57 10.76,29 18.46,46.79 21.26,30.56 83.83,52.59 118.69,61.18 183.36,45.18 283.05,-12.69 423.04,-98.81l227.43 -139.19c90.66,-57.93 166.49,-94.62 145.55,-216.14 -10.44,20.31 -21.36,28.31 -35.09,43.23 -25.06,27.25 -212.89,143.12 -262.77,170.56 -110.54,60.8 -211.98,150.69 -366.19,155.34 -68.61,2.07 -158.44,-14.57 -215.61,-47.97 -36.78,-21.48 -34.28,-26.74 -50.45,-37.3z"/>
   <path class="fil2" d="M1419.94 1522.35c-10.03,-30.31 -43.62,-35.6 -71.1,-51.07 -43.67,17.97 -78.72,55.54 -129.26,79.07 -132.03,61.48 -299.57,45.07 -417.19,-35.26 -29.88,-20.41 -28.89,-26.43 -52.27,-51.03 -12.96,85.58 30.41,122.91 96.39,165.26 46.09,29.59 140.16,54.28 207.28,53.9 131.69,-0.74 196.93,-53.95 287.39,-107.18l78.76 -53.69z"/>
   <path class="fil3" d="M841.11 1092.62c18.94,-12.79 -48.48,-9.69 -43.05,-91.55 1.6,-24.05 4.16,-21.79 16.42,-35.12 47.38,-51.55 117.34,-80.16 169.95,-117.25l173.67 -105.43c16.9,-10.83 39.8,-26.43 59.84,-35.29 70.42,-31.16 102.31,-65.68 223.29,-66.42 77.48,-0.47 173.49,21.75 214.18,74.92 26.74,34.94 1.47,66.88 14.78,72.43 18.28,-11.68 16.27,-56.24 4.89,-75.54 -40.13,-68.05 -139.95,-88.62 -217.17,-92.24 -149.37,-7 -211.78,41.4 -310.88,98.45l-315.41 192.92c-81.24,58.84 -82.44,109.62 -8.31,169.43 8.25,6.66 8.77,7.4 17.8,10.69z"/>
   <path class="fil4" d="M1286.86 1377.5c37.99,-3.32 78.94,-4.8 117.07,-3.55 32.59,1.07 84.13,11.52 112.3,7.03 6.55,-11.93 35.69,-112.75 38.83,-129.53 -1.17,0.67 -2.48,1.64 -3.39,2.21l-9.72 5.98c-8.03,4.3 1.81,0.25 -9.22,4.21 -65.63,23.52 -108.9,2.82 -171.09,-8.91 -9.05,45.85 -35.24,80.21 -64.64,110.34 -5.16,5.28 -6.43,7.25 -10.14,12.22z"/>
   <path class="fil4" d="M655.9 1244.57c2.76,15.25 -0.54,14.49 25.24,33.61 44.64,33.11 84.68,73.47 117.7,98.92l123.81 92.93c16.34,13.19 14.37,13.46 38.83,5.89 60.86,-18.85 201.02,-63.12 248.85,-72.16 -20.89,1.6 -47.11,11.71 -73.35,15.08 -150.9,19.38 -207.32,-46.1 -217.89,-48.78 -29.77,-7.58 -81.41,4.01 -146.37,-37.59 -36.42,-23.31 -63.71,-61.77 -65.38,-119.34 -11.04,2.53 -27.19,17.77 -51.44,31.44z"/>
   <path class="fil2" d="M1521.86 1435.02c-6.58,6.4 10.13,4.05 -14.3,7.47l24.46 2.73c22.48,-5.9 188.58,-113.2 217.27,-148.35 23.14,-28.36 23.71,-55.94 24.46,-99.91 -12.11,9.13 -17.58,17.83 -30.95,26.8l-153.7 92.34c-22.67,10.93 -16.18,10.26 -24.5,37.7 -12.63,41.59 -14.8,67.3 -42.74,81.22z"/>
   <path class="fil5" d="M1299.59 1644.96c-143.98,81.48 -271.97,109.41 -433,35.26 -89.62,-41.27 -78.86,-53.13 -108.6,-72.38 4.62,65.2 110.98,114.1 167.52,130.02 128.94,36.31 217.63,21.51 322.33,-42.55 22.28,-13.62 47.03,-28.27 51.75,-50.35z"/>
   <path class="fil6" d="M947.35 1528.56c17.91,-1.29 90.62,-25.11 117.69,-32.11 42.33,-10.93 79.93,-20.63 120.71,-33.88 35.38,-11.49 83.96,-27.2 121.16,-33.7 28.87,-5.04 114.05,-12.09 134.54,-19.27 -26.95,-14.89 -111.61,-2.41 -146.02,-0.76 -37.41,1.8 -89.05,20.91 -124.93,33.96 -33.9,12.32 -83.05,24.25 -119.55,34.28 -22.16,6.09 -41.16,10.42 -63.64,15.47 -25.67,5.75 -43.7,7.65 -39.96,36.01z"/>
   <path class="fil7" d="M908.47 1298.14c9.68,50.71 123.15,92.13 195.36,90.24 73.76,-1.93 174.26,-51.74 183.81,-102.32 -16.48,7.16 -19.68,15.75 -35.57,26.01 -11.66,7.53 -28.82,15.01 -44.84,21.86 -172.91,74.04 -257.99,-31.4 -298.76,-35.79z"/>
   <path class="fil8" d="M1348.84 1471.28c27.48,15.47 61.07,20.76 71.1,51.07 21.2,-13.22 31.97,-22.25 56.81,-35.58 11.4,-6.11 16.14,-10.58 27.57,-18.11 13.5,-8.89 20.35,-8.7 27.7,-23.44l-24.46 -2.73c24.43,-3.42 7.72,-1.07 14.3,-7.47 -86.38,6.1 -111.58,-8.43 -173.02,36.26z"/>
   <path class="fil9" d="M999.25 1308.69c7.39,8.28 3.03,6.2 16.47,10.33 6.07,1.87 17.83,2.9 24.97,3.92 52.6,7.51 89.44,10.44 145.07,-10.15 35.35,-13.09 119.9,-63.1 119.94,-96.48 -9.39,11.3 -103.83,56.75 -129.01,66.23 -66.3,24.98 -103.61,22.07 -177.44,26.15z"/>
   <path class="fil10" d="M1286.86 1377.5c3.71,-4.97 4.98,-6.94 10.14,-12.22 29.4,-30.13 55.59,-64.49 64.64,-110.34 62.19,11.73 105.46,32.43 171.09,8.91 11.03,-3.96 1.19,0.09 9.22,-4.21l9.72 -5.98c0.91,-0.57 2.22,-1.54 3.39,-2.21 6.57,-11.29 1.67,-11.16 -1.23,-15.74 -60.79,24.57 -143.76,11.66 -205.14,-7.47 -5.27,75.79 -55.55,114.69 -93.15,147.19l31.32 2.07z"/>
   <path class="fil11" d="M1363.08 1188.8c73.4,39.85 184.64,34.34 248.66,-12.57 1.11,-0.81 6.63,-5.27 7.33,-5.89 5.2,-4.61 3.41,-2.64 7.38,-7.26 -93.5,24.18 -113.94,23.95 -208.6,3.84 -14.65,-3.11 -21.06,0.89 -30.3,5.99 -4.18,2.31 -8.21,4.54 -13.18,7.67 -0.71,0.45 -1.78,1.11 -2.47,1.56l-8.82 6.66z"/>
   <path class="fil0" d="M1141.31 800.78c-2.73,29.36 13.36,27.53 36.9,38.55 16.04,7.51 34.23,15.84 51.71,23.38 31.2,13.46 81.47,51.44 105.55,29 -0.63,-20.79 -14.8,-24.29 -33.69,-34.09 -29.91,-15.52 -138.19,-75.53 -160.47,-56.84z"/>
   <path class="fil0" d="M1198.59 971.54c-0.17,-27.1 -49.81,-46.2 -82.68,-61.36 -17.53,-8.08 -95.29,-52.87 -106.34,-23.72 -8.07,21.3 41.39,31.91 86.55,55.81 29.15,15.44 76,49.14 102.47,29.27z"/>
   <path class="fil0" d="M1461.48 817.84c0.8,-30.75 -43.25,-40.7 -83.8,-61.38 -15.28,-7.79 -91.86,-55.85 -102.36,-24.72 -8.58,25.43 104.67,63.9 134.88,79.79 23.26,12.25 29.68,18.82 51.28,6.31z"/>
   <path class="fil12" d="M1007.37 1547.09c80.55,25.75 178.8,-15.83 247.83,-56.73 5.84,-3.46 8.46,-5.06 12.37,-8.44 0.37,-0.32 6.69,-6.68 6.74,-6.73 4.72,-5.39 2.15,-2.07 6.44,-8.49 -47.86,10.79 -92.7,25.68 -138.98,39.4 -22.42,6.64 -44.88,12.98 -67.71,19.92l-58.41 16.54c-5.91,2.45 -8.26,4.51 -8.28,4.53z"/>
   <path class="fil0" d="M1072.3 1057.41c4.26,-30.38 -29.67,-37.52 -75.25,-61.83 -16.27,-8.67 -90.26,-46.73 -105.84,-31.35 -24.11,23.81 72.74,52.56 121.65,82.12 19.67,11.89 34.47,17.57 59.44,11.06z"/>
   <path class="fil6" d="M1591.52 1264.62l239.51 -148.45c15.09,-9.35 28.29,-12.19 19.12,-31.69 -10.29,-3.74 0.37,-4.94 -13.77,3.12l-51.16 32.58c-43.12,27.9 -87.99,45.16 -142.38,82.68 -10.21,7.03 -19.59,13.36 -31.59,22.52 -15.33,11.7 -15.28,15.83 -19.73,39.24z"/>
   <path class="fil4" d="M1688.3 1145.36c44.8,-26.17 104.65,-56.89 148.04,-89.88l-74.14 -60.23c-3.92,91.94 -60.88,111.36 -73.9,150.11z"/>
   <path class="fil13" d="M1528.16 1085.02c82.6,8.34 209.23,-62.14 193.92,-144.15 -0.21,0.08 -39.52,38.28 -41.99,41.01 -16.31,18.07 -17.7,32.4 -38.98,48.63 -29.56,22.54 -3.44,-10.46 -58.54,20.6 -12.65,7.14 -46.8,23.1 -54.41,33.91z"/>
   <path class="fil9" d="M1454.11 1134.64c70.99,34.2 238.71,-9.89 258.7,-91.16 -9.77,5.55 -14.99,12.39 -25.66,20.43 -106.98,80.61 -205.4,51.43 -207.36,51.71 -2.37,0.33 -11.94,4.47 -14.15,5.95l-11.53 13.07z"/>
   <path class="fil0" d="M1570.45 743.02c6.71,-21.2 -0.98,-25.34 -19.74,-34.56 -25.09,-12.33 -109.13,-63.19 -128.13,-46.47 -30.27,26.65 51.38,47.32 101.28,73.46 18.97,9.93 26.37,15.59 46.59,7.57z"/>
   <path class="fil5" d="M1355.91 1609.58c23.95,0 48.11,-11.2 65.14,-20.19 32.64,-17.25 82.18,-43.12 108.62,-66.36 9.9,-8.71 15.78,-12.38 25.22,-20.58 11.66,-10.14 14.24,-14 15.5,-32.76 -40.29,19.07 -75.08,46.5 -110.87,70.59 -15.48,10.42 -97.22,59.63 -103.61,69.3z"/>
   <path class="fil6" d="M921.88 1520.14c-0.12,-30.06 -12.07,-23.67 -67.11,-65.76l-106.24 -85.17c-13.55,-17.54 -10.39,-8.65 -33.41,-33.46 -9.75,-10.51 -38.96,-24.14 -56.79,-39.1 -7.03,-5.91 -9.13,-9.86 -16.65,-15.12 -10.51,16.58 0.16,25.83 17.1,36.07 16.16,9.77 26.6,13.62 40.89,25.62l73.55 59.58c25.6,16.58 57.16,52.83 105.88,90.07 13.97,10.68 21.64,23.74 42.78,27.27z"/>
   <path class="fil14" d="M865.1 1309.42c-73.48,-16.22 -94.22,-67.55 -111.29,-83.1 0,-18.42 2.63,-0.6 -10.88,-4.67 9.74,68.13 63.89,109.18 138.22,106.2l-16.05 -18.43z"/>
   <path class="fil15" d="M742.93 1221.65c13.51,4.07 10.88,-13.75 10.88,4.67 17.07,15.55 37.81,66.88 111.29,83.1 -13.07,-38.35 -26.44,-33.75 -60.51,-54.59 -55.61,-34.03 -41.26,-41.55 -63.24,-57.27l1.58 24.09z"/>
   <path class="fil3" d="M790.73 1196.86c-7.7,-17.79 -14.32,-23.22 -18.46,-46.79 -4.82,-27.44 -2.23,-39.2 3.06,-62.31l-23.87 -32.27c-4.5,63.77 2.32,111.89 39.27,141.37z"/>
  </g>
 </g>
</svg>
